<svg width="612" height="612" viewBox="0 0 612 612" fill="none" xmlns="http://www.w3.org/2000/svg">
  <defs>
    <linearGradient id="barGradient" x1="306" y1="128" x2="306" y2="466" gradientUnits="userSpaceOnUse">
      <stop offset="0" stop-color="#0EA5E9"/>
      <stop offset="0.45" stop-color="#0877B8"/>
      <stop offset="1" stop-color="#034B73"/>
    </linearGradient>
    <filter id="shadow" x="110" y="490" width="392" height="45" filterUnits="userSpaceOnUse" color-interpolation-filters="sRGB">
      <feGaussianBlur stdDeviation="12"/>
    </filter>
  </defs>

  <rect width="612" height="612" fill="white"/>

  <!-- Soft ground shadow -->
  <ellipse cx="306" cy="516" rx="160" ry="13" fill="#D9D9D9" opacity="0.45" filter="url(#shadow)"/>

  <!-- Bottom swoosh -->
  <path d="M86 481C187 452 337 438 505 479C383 459 226 458 86 481Z" fill="#086497"/>
  <path d="M86 481C214 459 386 458 505 479" stroke="#0EA5E9" stroke-width="3" stroke-linecap="round"/>

  <!-- Growth bars -->
  <path d="M124 388L162 353V462H124V388Z" fill="url(#barGradient)"/>
  <path d="M175 342L214 306V457H175V342Z" fill="url(#barGradient)"/>
  <path d="M227 359L266 322V454H227V359Z" fill="url(#barGradient)"/>
  <path d="M278 310L318 256V452H278V310Z" fill="url(#barGradient)"/>
  <path d="M330 251L370 283V454H330V251Z" fill="url(#barGradient)"/>
  <path d="M382 284L421 246V462H382V284Z" fill="url(#barGradient)"/>
  <path d="M435 231L474 193V470H435V231Z" fill="url(#barGradient)"/>

  <!-- Main rising arrow/line -->
  <path d="M104 408L213 318L249 348L334 226L379 261L483 158" stroke="#0B6FA9" stroke-width="24" stroke-linejoin="miter" stroke-linecap="square"/>
  <path d="M104 408L213 318L249 348L334 226L379 261L483 158" stroke="#0EA5E9" stroke-width="12" stroke-linejoin="miter" stroke-linecap="square"/>

  <!-- Arrow head -->
  <path d="M449 140L509 130L495 190L483 158L449 140Z" fill="#0EA5E9"/>
</svg>
